<?xml version="1.0" encoding="utf-8" ?>
<svg xmlns="http://www.w3.org/2000/svg" xmlns:xlink="http://www.w3.org/1999/xlink" width="80" height="10">
	<path fill="#3E40DB" d="M1.9088591 5.7879658L1.9088591 9.8710604L0 9.8710604L0 0.042979963L0.20400017 0.042979963L5.2020054 4.6561604C5.6828628 5.1002865 6.3677206 5.9885387 6.3677206 5.9885387C6.3677206 5.9885387 6.236578 4.8853869 6.236578 4.2120342L6.236578 0.12893982L8.1454372 0.12893982L8.1454372 9.9570198L7.9414368 9.9570198L2.9434316 5.3438396C2.4484129 4.8857665 1.7642794 4.0129094 1.763146 4.0114632C1.7634084 4.0134068 1.9088591 5.0865955 1.9088591 5.7879658ZM10.477264 9.8710604L14.834126 0.042979963L15.008984 0.042979963L19.540703 9.8710604L17.398701 9.8710604L16.932413 8.7679081L12.910695 8.7679081L12.444409 9.8710604L10.477264 9.8710604ZM14.309554 5.4011459L12.910695 8.7679081L16.932413 8.7679081L15.489841 5.4011459C15.198488 4.7136464 14.892571 3.6538482 14.892411 3.6532953C14.892246 3.6538956 14.600901 4.7136617 14.309554 5.4011459ZM25.792248 10C22.936245 10 20.663099 7.8796563 20.663099 5C20.663099 2.1203439 22.936245 0 25.792248 0C28.648251 0 30.921396 2.1203439 30.921396 5C30.921396 7.8796563 28.648251 10 25.792248 10ZM25.792248 8.2091694C27.599106 8.2091694 28.823109 6.8194842 28.823109 5C28.823109 3.1805158 27.599106 1.790831 25.792248 1.790831C23.985388 1.790831 22.761387 3.1805158 22.761387 5C22.761387 6.8194842 23.985388 8.2091694 25.792248 8.2091694ZM33.967224 9.8710604L33.967224 0.12893982L35.016369 0.12893982L35.016369 8.954155L39.693802 8.954155L39.693802 9.8710604L33.967224 9.8710604ZM46.499062 9.985673C43.686775 9.985673 41.413628 7.9369626 41.413628 5C41.413628 2.0630372 43.686775 0.014326654 46.499062 0.014326654C49.325924 0.014326654 51.599068 2.0630372 51.599068 5C51.599068 7.9369626 49.325924 9.985673 46.499062 9.985673ZM46.499062 9.0544415C48.815922 9.0544415 50.50621 7.3209171 50.50621 5C50.50621 2.6790831 48.815922 0.94555879 46.499062 0.94555879C44.196774 0.94555879 42.506485 2.6790831 42.506485 5C42.506485 7.3209171 44.196774 9.0544415 46.499062 9.0544415ZM59.351471 9.985673C56.393467 9.985673 54.164036 7.9369626 54.164036 5C54.164036 2.0630372 56.378899 0.014326654 59.264042 0.014326654C60.692043 0.014326654 61.901474 0.41547281 62.717476 1.2750716L62.003475 1.9770774C61.362331 1.3180516 60.488045 0.94555879 59.264042 0.94555879C56.932613 0.94555879 55.256897 2.6790831 55.256897 5C55.256897 7.3209171 56.947182 9.0544415 59.351471 9.0544415C60.706615 9.0544415 61.668331 8.6532955 62.280331 8.1661892L62.280331 6.1604586L59.336899 6.1604586L59.336899 5.2435532L63.271191 5.2435532L63.271191 8.6389685C62.542618 9.3409739 61.216618 9.985673 59.351471 9.985673ZM66.593872 9.8710604L66.593872 0.12893982L67.657593 0.12893982L67.657593 9.8710604L66.593872 9.8710604ZM75.919998 9.985673C73.107704 9.985673 70.834564 7.9369626 70.834564 5C70.834564 2.0630372 73.107704 0.014326654 75.919998 0.014326654C77.668571 0.014326654 79.00914 0.65902579 79.854286 1.9054441L79.052856 2.4785101C78.411713 1.5472779 77.348 0.94555879 75.919998 0.94555879C73.603134 0.94555879 71.927422 2.6790831 71.927422 5C71.927422 7.3209171 73.603134 9.0544415 75.919998 9.0544415C77.362572 9.0544415 78.470001 8.4383955 79.183998 7.4212036L80 7.9799428C79.12571 9.2406874 77.697708 9.985673 75.919998 9.985673Z"/>
</svg>
